#!OML:ASF E:\I on waltz\AllaLogoMonkeySwing\Project 1\Capture day 1\Session 1\Subject1.ASF
:FULLY-SPECIFIED
:DEGREES
1046
root -0.0518911 17.9151 -0.489551 181.362 182.519 539.403
lowerback 12.542 -0.928381 -4.69231
upperback 1.58263 -1.76569 1.85917
thorax -5.16426 -0.762058 4.91161
lowerneck -8.64853 0.935898 0.00759911
upperneck 3.51601 1.29273 -0.782685
head 2.62733 0.61523 -0.189415
rclavicle 6.59717e-015 -3.99557e-014
rhumerus -31.0472 -26.5515 -64.0694
rradius 29.8276
rwrist 2.01092
rhand -9.68869 -38.1404
rfingers 7.12502
rthumb 16.2834 -67.4766
lclavicle 6.59717e-015 -3.99557e-014
lhumerus -40.2653 34.252 66.0326
lradius 32.7545
lwrist -13.4856
lhand -2.53242 -7.70344
lfingers 7.12502
lthumb 23.1626 20.924
rfemur -8.31757 -2.37044 16.8094
rtibia 21.5609
rfoot -13.4802 -8.00915
rtoes 10.5292
lfemur 1.57177 4.06974 -15.8717
ltibia 12.8025
lfoot -15.7095 2.84194
ltoes -25.0364
1047
root -0.0962049 17.9135 -0.477974 181.32 182.34 539.205
lowerback 12.592 -0.999508 -4.39516
upperback 1.57007 -1.81699 1.93776
thorax -5.20606 -0.790907 4.83629
lowerneck -8.70321 0.522076 -0.338505
upperneck 3.44479 0.763161 -0.507576
head 2.60816 0.356464 -0.0668534
rclavicle -2.75068e-014 1.37161e-014
rhumerus -30.4323 -25.8233 -64.554
rradius 30.3985
rwrist 1.58051
rhand -9.96204 -38.1348
rfingers 7.12502
rthumb 16.0202 -67.4924
lclavicle -2.75068e-014 1.37161e-014
lhumerus -39.8663 34.0185 66.3768
lradius 32.8824
lwrist -13.758
lhand -1.91504 -7.29845
lfingers 7.12502
lthumb 23.7549 21.2533
rfemur -8.11746 -2.18874 17.2663
rtibia 21.3853
rfoot -13.449 -8.26092
rtoes 9.97524
lfemur 1.14238 4.19157 -15.4302
ltibia 13.7987
lfoot -16.048 2.76763
ltoes -24.179
1048
root -0.138079 17.9127 -0.468963 181.319 182.096 538.918
lowerback 12.6368 -1.10629 -4.00233
upperback 1.55301 -1.89967 2.05257
thorax -5.24846 -0.836842 4.75009
lowerneck -8.65524 0.185423 -0.631268
upperneck 3.22788 0.332106 -0.276133
head 2.52468 0.146626 0.0368878
rclavicle 3.62782e-015 -1.16289e-014
rhumerus -29.9052 -25.1575 -64.9899
rradius 31.0508
rwrist 1.20213
rhand -10.1714 -37.9279
rfingers 7.12502
rthumb 15.8185 -67.3016
lclavicle 3.62782e-015 -1.16289e-014
lhumerus -39.444 33.7021 66.8537
lradius 33.2883
lwrist -13.7697
lhand -1.72321 -7.2185
lfingers 7.12502
lthumb 23.9388 21.3092
rfemur -8.02544 -2.13673 17.8128
rtibia 21.3219
rfoot -13.3946 -8.5269
rtoes 9.27807
lfemur 0.38891 4.32098 -14.9002
ltibia 15.2554
lfoot -16.3097 2.67502
ltoes -24.3381
1049
root -0.178093 17.91 -0.462356 181.316 181.828 538.573
lowerback 12.7156 -1.24383 -3.58699
upperback 1.52502 -2.01888 2.19527
thorax -5.31794 -0.900144 4.6886
lowerneck -8.4961 -0.10001 -0.981276
upperneck 2.90641 -0.0314471 0.0671776
head 2.3885 -0.0263343 0.189587
rclavicle 9.86469e-015 -1.20265e-014
rhumerus -29.4803 -24.3632 -65.4399
rradius 31.7547
rwrist 0.780477
rhand -10.3134 -37.8169
rfingers 7.12502
rthumb 15.6818 -67.2014
lclavicle 9.86469e-015 -1.20265e-014
lhumerus -39.1035 33.3126 67.3209
lradius 33.8519
lwrist -13.6798
lhand -1.80981 -7.63816
lfingers 7.12502
lthumb 23.8558 20.9004
rfemur -7.92933 -2.19919 18.3918
rtibia 21.256
rfoot -13.3619 -8.7063
rtoes 8.94724
lfemur -0.555593 4.52358 -14.2951
ltibia 17.0133
lfoot -16.4765 2.52294
ltoes -24.2781
1050
root -0.21482 17.9058 -0.459519 181.298 181.518 538.195
lowerback 12.8244 -1.38256 -3.16137
upperback 1.51966 -2.13581 2.37134
thorax -5.38055 -0.963068 4.65748
lowerneck -8.29489 -0.342651 -1.32455
upperneck 2.49038 -0.339345 0.419422
head 2.21678 -0.171329 0.346497
rclavicle 2.96189e-014 -2.22639e-014
rhumerus -28.9902 -23.5263 -65.8664
rradius 32.2317
rwrist 0.301524
rhand -10.3242 -37.9629
rfingers 7.12502
rthumb 15.6714 -67.3483
lclavicle 2.96189e-014 -2.22639e-014
lhumerus -38.6842 32.8517 67.8996
lradius 34.4724
lwrist -13.4759
lhand -1.97007 -8.13
lfingers 7.12502
lthumb 23.7021 20.4286
rfemur -7.82409 -2.30733 18.9745
rtibia 21.1772
rfoot -13.3665 -8.82471
rtoes 9.07761
lfemur -1.64082 4.75515 -13.6671
ltibia 19.0073
lfoot -16.5634 2.41143
ltoes -23.6836
1051
root -0.24906 17.9012 -0.460476 181.265 181.157 537.873
lowerback 12.9177 -1.47235 -2.78654
upperback 1.56407 -2.19392 2.54001
thorax -5.38687 -0.998488 4.63584
lowerneck -8.06327 -0.638064 -1.5289
upperneck 2.03424 -0.720699 0.522057
head 2.02879 -0.359217 0.397267
rclavicle 2.23633e-015 7.55382e-015
rhumerus -28.4802 -22.8291 -66.1802
rradius 32.5231
rwrist -0.165654
rhand -10.3824 -38.1666
rfingers 7.12502
rthumb 15.6154 -67.5564
lclavicle 2.23633e-015 7.55382e-015
lhumerus -37.9804 32.1807 68.7617
lradius 35.049
lwrist -13.1109
lhand -2.32786 -8.59219
lfingers 7.12502
lthumb 23.3589 20.0104
rfemur -7.76369 -2.48158 19.4771
rtibia 21.1943
rfoot -13.3987 -8.96873
rtoes 9.26718
lfemur -2.85277 5.02448 -13.1247
ltibia 21.1943
lfoot -16.5405 2.31087
ltoes -23.8086
1052
root -0.282629 17.8969 -0.462605 181.208 180.84 537.73
lowerback 13.0224 -1.4937 -2.63114
upperback 1.60982 -2.19452 2.66395
thorax -5.39738 -1.00126 4.68266
lowerneck -8.37628 -0.70396 -1.79276
upperneck 2.30109 -0.789432 0.818907
head 2.17924 -0.387741 0.534426
rclavicle -1.44119e-015 -2.98177e-015
rhumerus -28.0805 -22.388 -66.341
rradius 32.7507
rwrist -0.2983
rhand -10.5362 -38.0777
rfingers 7.12502
rthumb 15.4673 -67.4789
lclavicle -1.44119e-015 -2.98177e-015
lhumerus -37.1791 31.3047 69.7663
lradius 35.6599
lwrist -12.6814
lhand -2.75395 -8.8285
lfingers 7.12502
lthumb 22.9501 19.8255
rfemur -7.73374 -2.63133 19.7711
rtibia 21.3024
rfoot -13.4487 -9.14147
rtoes 9.32795
lfemur -4.11617 5.37882 -12.7916
ltibia 23.4689
lfoot -16.6297 2.1065
ltoes -24.062
1053
root -0.313232 17.8966 -0.4629 181.113 180.634 537.705
lowerback 13.1885 -1.46932 -2.65201
upperback 1.63443 -2.16276 2.74295
thorax -5.46248 -0.983049 4.78027
lowerneck -8.34401 -0.982434 -2.01343
upperneck 2.20925 -1.14836 1.04365
head 2.15234 -0.561868 0.628306
rclavicle 1.01877e-014 2.98177e-015
rhumerus -27.6992 -22.1304 -66.4785
rradius 32.8547
rwrist -0.0975541
rhand -10.6258 -37.9457
rfingers 7.12502
rthumb 15.3809 -67.3536
lclavicle 1.01877e-014 2.98177e-015
lhumerus -36.4265 30.2699 70.7483
lradius 36.3589
lwrist -12.1748
lhand -3.23359 -8.72673
lfingers 7.12502
lthumb 22.4898 19.9837
rfemur -7.65435 -2.69114 19.9187
rtibia 21.3889
rfoot -13.4804 -9.30389
rtoes 9.30674
lfemur -5.30893 5.84043 -12.5971
ltibia 25.6622
lfoot -16.9133 1.85237
ltoes -24.3699
1054
root -0.338948 17.8998 -0.460419 180.963 180.444 537.709
lowerback 13.4161 -1.41692 -2.67269
upperback 1.65185 -2.09761 2.77091
thorax -5.57469 -0.947384 4.82063
lowerneck -7.74862 -1.58977 -2.17976
upperneck 1.5097 -1.95691 1.17012
head 1.8311 -0.962493 0.664622
rclavicle -9.93923e-016 9.14409e-015
rhumerus -27.3493 -21.9769 -66.6141
rradius 32.7987
rwrist 0.165078
rhand -11.0426 -37.3014
rfingers 7.12502
rthumb 14.9794 -66.7396
lclavicle -9.93923e-016 9.14409e-015
lhumerus -35.7084 29.0856 71.6712
lradius 37.1665
lwrist -11.6083
lhand -3.53836 -8.49217
lfingers 7.12502
lthumb 22.1972 20.2533
rfemur -7.45166 -2.69257 20.0208
rtibia 21.3857
rfoot -13.5101 -9.49309
rtoes 9.13982
lfemur -6.31928 6.24966 -12.4577
ltibia 27.5273
lfoot -17.2777 1.61153
ltoes -25.049
1055
root -0.357744 17.9042 -0.455331 180.845 180.221 537.787
lowerback 13.5878 -1.36985 -2.69942
upperback 1.65315 -2.04217 2.75629
thorax -5.67351 -0.916829 4.81834
lowerneck -7.58538 -1.91325 -2.31344
upperneck 1.33494 -2.38869 1.45184
head 1.7596 -1.17174 0.760793
rclavicle -3.57812e-015 1.09332e-014
rhumerus -27.0551 -21.8723 -66.7119
rradius 32.6494
rwrist 0.339038
rhand -11.9169 -35.993
rfingers 7.12502
rthumb 14.1371 -65.4921
lclavicle -3.57812e-015 1.09332e-014
lhumerus -35.1118 27.9515 72.4762
lradius 38.0979
lwrist -11.0692
lhand -3.44891 -8.34536
lfingers 7.12502
lthumb 22.2831 20.3899
rfemur -7.25772 -2.68339 20.0116
rtibia 21.3564
rfoot -13.5039 -9.70733
rtoes 9.06396
lfemur -7.20076 6.34299 -12.4828
ltibia 28.9133
lfoot -17.9223 1.50821
ltoes -24.9712
1056
root -0.369773 17.9085 -0.447335 180.798 180.095 537.815
lowerback 13.6189 -1.34232 -2.7033
upperback 1.66447 -2.00568 2.77146
thorax -5.68166 -0.898555 4.83137
lowerneck -7.58295 -2.15324 -2.58154
upperneck 1.29985 -2.69737 1.83676
head 1.76681 -1.31789 0.917067
rclavicle -2.5842e-015 -3.97569e-015
rhumerus -26.715 -21.7668 -66.8352
rradius 32.4599
rwrist 0.480992
rhand -12.6581 -35.4141
rfingers 7.12502
rthumb 13.4227 -64.9616
lclavicle -2.5842e-015 -3.97569e-015
lhumerus -34.5902 26.9975 73.1645
lradius 39.0506
lwrist -10.3682
lhand -3.33924 -8.15183
lfingers 7.12502
lthumb 22.3884 20.5708
rfemur -7.14422 -2.61323 20.0392
rtibia 21.3187
rfoot -13.3712 -9.83861
rtoes 9.45576
lfemur -7.8948 6.1512 -12.4985
ltibia 29.5772
lfoot -18.7954 1.63977
ltoes -23.6352
